<svg xmlns="http://www.w3.org/2000/svg" viewBox="0 0 1657.82 359.65"><defs><style>.cls-1,.cls-2{fill:#ffd369;}.cls-1,.cls-4{fill-rule:evenodd;}.cls-3,.cls-4{fill:#222831;}</style></defs><g id="Layer_2" data-name="Layer 2"><g id="Layer_1-2" data-name="Layer 1"><path class="cls-1" d="M1543.86,66.21a114,114,0,1,0,114,114A114,114,0,0,0,1543.86,66.21Zm0,184.41a70.45,70.45,0,1,1,70.45-70.45A70.45,70.45,0,0,1,1543.86,250.62Z"/><path class="cls-2" d="M1429.9,180.17h43.51a0,0,0,0,1,0,0V351a8.67,8.67,0,0,1-8.67,8.67h-26.16a8.67,8.67,0,0,1-8.67-8.67V180.17A0,0,0,0,1,1429.9,180.17Z"/><path class="cls-1" d="M948.89,66.21a114,114,0,1,0,114,114A114,114,0,0,0,948.89,66.21Zm0,184.41a70.45,70.45,0,1,1,70.45-70.45A70.45,70.45,0,0,1,948.89,250.62Z"/><path class="cls-2" d="M1028,180.17h26.16a8.67,8.67,0,0,1,8.67,8.67V289.16a0,0,0,0,1,0,0h-43.51a0,0,0,0,1,0,0V188.84A8.67,8.67,0,0,1,1028,180.17Z" transform="translate(2082.2 469.33) rotate(-180)"/><rect class="cls-3" x="253.16" width="44.16" height="52.3" rx="8.67"/><rect class="cls-3" x="253.16" y="70.85" width="44.16" height="218.3" rx="8.67"/><path class="cls-2" d="M669.27,158.72,646,150.93c-18.67-6.33-20.27-15.6-19.83-22.34a18,18,0,0,1,5.9-13.42,20.26,20.26,0,0,1,13.61-5.79,25.26,25.26,0,0,1,15.48,4.92c3.76,2.77,5.44,6,5.44,10.31v4.65a8.68,8.68,0,0,0,8.68,8.67h28.23a8.67,8.67,0,0,0,8.67-8.67v-6l0-.58C711.07,106.1,703.5,92.09,689.67,81,676.11,70.2,661.24,65.1,645.5,65.93a68.22,68.22,0,0,0-46.2,20.12c-13,12.8-19.14,28.42-18.31,46.43,1.32,29.35,16.83,49.52,44.81,58.31l23.55,7.49c21.1,6.8,23.39,18.65,23.27,26.88-.18,7.73-2.39,13.7-6.63,18.12-5,5-11.79,7.52-20.88,7.71-6.05.18-11.84-2.52-17.65-8.21s-8.66-10.7-8.66-15.13v-6.77a8.68,8.68,0,0,0-8.68-8.68H582.24a8.68,8.68,0,0,0-8.67,8.68h0c0,19.32,6.52,36.24,19.38,50.29a70.09,70.09,0,0,0,48.33,23.25c1.68.11,3.34.16,5,.16,18.74,0,35.59-6.94,50.16-20.66,16-15.1,23.36-33.28,21.75-54C716,189.67,699.58,169.1,669.27,158.72Z"/><path class="cls-2" d="M792.23,217.72V112.9h37.85a8.68,8.68,0,0,0,8.68-8.67V79.17a8.68,8.68,0,0,0-8.68-8.67H792.23V9A8.68,8.68,0,0,0,783.56.35H756.73A8.68,8.68,0,0,0,748.06,9V222.31c0,32.42,14.23,71.08,82,71.08h0a8.68,8.68,0,0,0,8.68-8.68V262.47a8.68,8.68,0,0,0-8.68-8.67h0C803.9,253.8,792.23,242.67,792.23,217.72Z"/><path class="cls-2" d="M1316.15,66.65c-28.49-2.28-52.17,8.16-70.49,31.08-18.33-22.93-42-33.35-70.54-31.08-24,2.07-43.63,11.17-58.46,27-15.83,16.87-23.86,39.27-23.86,66.57V280.48a8.68,8.68,0,0,0,8.67,8.68h27.88a8.68,8.68,0,0,0,8.68-8.68V157.09c0-13.85,3.65-25.17,11.15-34.6,7-8.82,16.21-13.11,28.09-13.11,12.7,0,23.31,4,32.44,12.22,8.86,8,13.16,17.63,13.16,29.5V280.48a8.68,8.68,0,0,0,8.67,8.68h28.23a8.68,8.68,0,0,0,8.68-8.68V151.1c0-11.87,4.31-21.52,13.17-29.5,9.12-8.22,19.72-12.22,32.42-12.22,11.91,0,21.23,4.36,28.5,13.34,7.71,9.55,11.46,20.79,11.46,34.37V280.48a8.68,8.68,0,0,0,8.67,8.68h27.88a8.68,8.68,0,0,0,8.68-8.68V160.26c0-27.33-8.16-49.74-24.25-66.61C1359.9,77.8,1340.13,68.72,1316.15,66.65Z"/><path class="cls-4" d="M442.32,65.87a114,114,0,1,0,114,114A114,114,0,0,0,442.32,65.87Zm0,184.41a70.45,70.45,0,1,1,70.45-70.45A70.45,70.45,0,0,1,442.32,250.28Z"/><path class="cls-4" d="M114,65.87a114,114,0,1,0,114,114A114,114,0,0,0,114,65.87Zm0,184.41a70.45,70.45,0,1,1,70.45-70.45A70.45,70.45,0,0,1,114,250.28Z"/><path class="cls-3" d="M8.67.35H34.84A8.67,8.67,0,0,1,43.51,9v170.8a0,0,0,0,1,0,0H0a0,0,0,0,1,0,0V9A8.67,8.67,0,0,1,8.67.35Z"/><path class="cls-3" d="M442.48,150.72a30.9,30.9,0,0,1,23.07,10.17,30.14,30.14,0,0,1,7.78,16.47,33.17,33.17,0,0,1,.31,4.56,6.13,6.13,0,0,1-4.14,5.73,6.2,6.2,0,0,1-8.26-5.63,20.91,20.91,0,0,0-1-6.18,18.66,18.66,0,0,0-15-12.47,18.19,18.19,0,0,0-11.32,1.95,18.44,18.44,0,0,0-8,8.1,19.38,19.38,0,0,0-2,8.75A74.48,74.48,0,0,1,418,211.05a6.22,6.22,0,0,1-11.87-1.14,5.91,5.91,0,0,1,.3-3.38,70.9,70.9,0,0,0,3-8.73,56.54,56.54,0,0,0,1.69-9.12c.2-2.33.35-4.66.38-7a31.19,31.19,0,0,1,5.16-17,31.09,31.09,0,0,1,22.82-13.78C440.53,150.8,441.57,150.77,442.48,150.72Z"/><path class="cls-3" d="M498.57,180.3a18.75,18.75,0,0,1-.36,3.24,6.12,6.12,0,0,1-6.62,4.44,6.25,6.25,0,0,1-5.5-5.91c-.09-1.63-.15-3.27-.29-4.9a39.85,39.85,0,0,0-1.6-8,43.67,43.67,0,0,0-21-25.64,42.48,42.48,0,0,0-12.71-4.46,42.94,42.94,0,0,0-13-.42A46.63,46.63,0,0,0,426,141.56a6.17,6.17,0,0,1-8.33-4.49,6.25,6.25,0,0,1,4-7.14,56,56,0,0,1,40.12-.64,54.52,54.52,0,0,1,14.39,7.84,55.62,55.62,0,0,1,18.23,23.76A53.6,53.6,0,0,1,498,174.45C498.23,176.31,498.37,178.18,498.57,180.3Z"/><path class="cls-3" d="M448.8,184.54a99.24,99.24,0,0,1-8,36.29,6,6,0,0,1-5.63,3.87,6.16,6.16,0,0,1-5.88-8.43,101,101,0,0,0,4.49-13.41A74.7,74.7,0,0,0,435.87,191c.25-3.14.37-6.29.54-9.43a6.2,6.2,0,0,1,12.39.3C448.81,182.76,448.8,183.65,448.8,184.54Z"/><path class="cls-3" d="M386.72,180.94a55.45,55.45,0,0,1,6.68-25.71,54.29,54.29,0,0,1,7.21-10.34,6.21,6.21,0,0,1,10.49,1.75,5.9,5.9,0,0,1-1,6.19A52.91,52.91,0,0,0,405,160a43.23,43.23,0,0,0-5.06,13.5,42.27,42.27,0,0,0-.78,8.1,6.27,6.27,0,0,1-1.21,3.84,5.92,5.92,0,0,1-5.79,2.49,6,6,0,0,1-5.07-4.08A7,7,0,0,1,386.72,180.94Z"/><path class="cls-3" d="M472.21,200.53c-.13.87-.3,2-.5,3.15-.74,4.29-1.78,8.52-2.93,12.72a6.21,6.21,0,1,1-12-3.12,126.6,126.6,0,0,0,3.08-13.76,6.18,6.18,0,0,1,8.67-4.75C470.83,195.82,472,197.71,472.21,200.53Z"/></g></g></svg>